# xmcd
# 
# Track frame offsets:
#     150
#     14835
#     26343
# 
# Disc length: 670
# 
# Revision: 1
# Processed by: cddbd v1.5.2PL0 Copyright (c) Steve Scherf et al.
# Submitted via: fre:ac v1.0.17
# 
DISCID=1c029c03
DTITLE=Various Artist - A MUSICAL GIFT TO DAN FLAVIN
DYEAR=0
DGENRE=
TTITLE0=RICHARD TRAUBNER - DEIN IST MEIN GANZES HERZ
TTITLE1=ANTONELLI ELECTR - DEIN IST MEIN GANZES HERZ
TTITLE2=ELECTRO MUSIC DEPARTMENT - I´LL FOLLOW YOU TO THE END OF THE WORLD
EXTD=
EXTT0=
EXTT1=
EXTT2=
PLAYORDER=
